<svg width="92" height="92" viewBox="0 0 92 92" fill="none" xmlns="http://www.w3.org/2000/svg">
<circle cx="46.5" cy="45.5" r="45.5" fill="#FF6B35"/>
<path d="M19.9805 62.7085C15.9953 62.7085 12.5014 61.9659 9.49891 60.4807C6.49638 58.9405 4.14895 56.8227 2.45662 54.1274C0.818872 51.377 0 48.1866 0 44.5561V18.9776C0 15.2921 0.818872 12.1017 2.45662 9.40629C4.14895 6.71092 6.49638 4.62064 9.49891 3.13544C12.5014 1.59523 15.9953 0.825129 19.9805 0.825129C24.0202 0.825129 27.5141 1.59523 30.462 3.13544C33.4646 4.62064 35.7847 6.71092 37.4224 9.40629C39.1148 12.1017 39.9609 15.2921 39.9609 18.9776H27.6779C27.6779 16.5573 26.9955 14.7145 25.6307 13.4493C24.3205 12.1842 22.4371 11.5516 19.9805 11.5516C17.5239 11.5516 15.6132 12.1842 14.2484 13.4493C12.9382 14.7145 12.2831 16.5573 12.2831 18.9776V44.5561C12.2831 46.9214 12.9382 48.7641 14.2484 50.0843C15.6132 51.3495 17.5239 51.9821 19.9805 51.9821C22.4371 51.9821 24.3205 51.3495 25.6307 50.0843C26.9955 48.7641 27.6779 46.9214 27.6779 44.5561H39.9609C39.9609 48.1866 39.1148 51.377 37.4224 54.1274C35.7847 56.8227 33.4646 58.9405 30.462 60.4807C27.5141 61.9659 24.0202 62.7085 19.9805 62.7085Z" fill="#2C1810"/>
<path d="M43.3795 92C37.1015 92 32.1064 90.2948 28.3941 86.8843C24.7365 83.4188 22.9077 78.7707 22.9077 72.9399H35.1908C35.1908 75.4703 35.9278 77.5055 37.4017 79.0457C38.8757 80.5309 40.8683 81.2735 43.3795 81.2735C45.8907 81.2735 47.8833 80.5584 49.3573 79.1282C50.8312 77.643 51.0564 75.6353 51.0564 73.1049V30.9417H63.8513V73.1049C63.8513 78.9357 62.0225 83.5564 58.3648 86.9668C54.7072 90.3223 49.7121 92 43.3795 92Z" fill="#2C1810"/>
<path d="M71.5282 0C77.8062 5.53024e-07 82.8013 1.70523 86.5136 5.1157C90.1712 8.58117 92 13.2293 92 19.0601L79.7169 19.0601C79.7169 16.5297 78.9799 14.4945 77.506 12.9543C76.032 11.4691 74.0394 10.7265 71.5282 10.7265C69.017 10.7265 67.0244 11.4416 65.5504 12.8717C64.0765 14.357 63.3395 16.3647 63.3395 18.8951L63.3395 61.0583H51.0564L51.0564 18.8951C51.0564 13.0643 52.8852 8.44365 56.5429 5.03318C60.2005 1.67773 65.1956 -5.57833e-07 71.5282 0Z" fill="#2C1810"/>
<rect x="56.1744" y="25.7848" width="23.0308" height="10.3139" fill="#2C1810"/>
</svg>
