<svg xmlns="http://www.w3.org/2000/svg" xmlns:xlink="http://www.w3.org/1999/xlink" width="176.5" height="201" viewBox="0 0 176.5 201"><style>.st0{fill:#3E4651;} .st1{fill:#5D6670;} .st2{fill:#727272;} .st3{fill:none;stroke:#EEE657;stroke-width:3;stroke-miterlimit:10;} .st4{fill:#EEE657;} .st5{fill:#FFFFFF;} .st6{fill:#FF646A;} .st7{fill:none;stroke:#FFFFFF;stroke-width:3;stroke-miterlimit:10;} .st8{fill:#73C1DD;} .st9{fill:#EEE657;stroke:#3E4651;stroke-width:4;stroke-miterlimit:10;} .st10{display:none;} .st11{display:inline;} .st12{fill:#F48446;} .st13{fill:#2C82C9;} .st14{clip-path:url(#SVGID_2_);fill:#E74C3C;} .st15{display:inline;fill:#3E4651;} .st16{fill:#FF931E;} .st17{fill:#FCB941;} .st18{fill:#CE6905;} .st19{display:inline;fill:#FF931E;} .st20{display:inline;fill:#FCB941;} .st21{display:inline;fill:#CE6905;} .st22{display:inline;fill:#EEE657;}</style><g id="Layer_1"><path class="st0" d="M175.8 62.3l-21.5-9.1v22.1zM1 162.3l49.9 16.8L24.3 147z"/><path class="st0" d="M88.4 199.1c28-1.2 47.2-21.6 59.6-43.1 13.2-22.9 19.9-49 19.9-75.5V34.4c0-5.6-4.2-10.4-9.7-11.1-26.6-3.6-65.2-20.8-69.6-21h-.8c-4.4.2-42.8 17.3-69.4 21-5.6.8-9.7 5.5-9.7 11.1v46.2c0 26.5 6.6 52.6 19.9 75.5 12.5 21.6 31.6 42 59.6 43.1"/><path class="st1" d="M88.5 9.8l-.1 181.9-10.1-1-11.7-4.7-10.3-7.3-12.7-10.4-8.3-13-6-10.6-13-37.7-1.4-19.3-.3-43.4.3-9.6 4.7-3.7 5.3-2 16-3.3 10.7-4 12.7-4.4 13.6-5z"/><ellipse class="st2" cx="-223.2" cy="-46.3" rx="9.8" ry="4.7"/><path class="st3" d="M88.4 191.6c25.9-1.1 43.6-19.9 55.1-39.8 12.2-21.2 18.3-45.3 18.3-69.7V39.5c0-5.2-3.8-9.6-9-10.3-24.5-3.4-60.2-19.3-64.3-19.4h-.8c-4 .2-39.5 16-64.1 19.4-5.1.7-9 5.1-9 10.3v42.6c0 24.4 6.1 48.6 18.3 69.7 11.5 19.9 29.2 38.8 55.1 39.8h.4z"/><path class="st4" d="M89.6 45.5l5.3 14.9c.3.8 1.2 1.2 2 .8l14.3-6.8c1.2-.6 2.5.7 1.9 1.9l-6.8 14.3c-.4.8 0 1.7.8 2l14.9 5.3c1.3.5 1.3 2.3 0 2.7L107.2 86c-.8.3-1.2 1.2-.8 2l6.8 14.3c.6 1.2-.7 2.5-1.9 1.9L97 97.4c-.8-.4-1.7 0-2 .8l-5.3 14.9c-.5 1.3-2.3 1.3-2.7 0l-5.3-14.9c-.3-.8-1.2-1.2-2-.8l-14.3 6.8c-1.2.6-2.5-.7-1.9-1.9L70.2 88c.4-.8 0-1.7-.8-2l-14.9-5.3c-1.3-.5-1.3-2.3 0-2.7l14.9-5.3c.8-.3 1.2-1.2.8-2l-6.8-14.3c-.6-1.2.7-2.5 1.9-1.9l14.3 6.8c.8.4 1.7 0 2-.8l5.3-14.9c.5-1.4 2.3-1.4 2.7-.1zM-65 204.7l2.8 7.8c.2.4.6.6 1 .4l7.5-3.6c.6-.3 1.3.4 1 1l-3.6 7.5c-.2.4 0 .9.4 1l7.8 2.8c.7.2.7 1.2 0 1.4l-7.8 2.8c-.4.2-.6.6-.4 1l3.6 7.5c.3.6-.4 1.3-1 1l-7.5-3.6c-.4-.2-.9 0-1 .4l-2.8 7.8c-.2.7-1.2.7-1.4 0l-2.8-7.8c-.2-.4-.6-.6-1-.4l-7.5 3.6c-.6.3-1.3-.4-1-1l3.6-7.5c.2-.4 0-.9-.4-1l-7.8-2.8c-.7-.2-.7-1.2 0-1.4l7.8-2.8c.4-.2.6-.6.4-1l-3.6-7.5c-.3-.6.4-1.3 1-1l7.5 3.6c.4.2.9 0 1-.4l2.8-7.8c.2-.6 1.1-.6 1.4 0zM253.4 159.9l2.3 6.4c.1.3.5.5.9.4l6.1-2.9c.5-.3 1.1.3.8.8l-2.9 6.1c-.2.3 0 .7.4.9l6.4 2.3c.6.2.6 1 0 1.2l-6.4 2.3c-.3.1-.5.5-.4.9l2.9 6.1c.3.5-.3 1.1-.8.8l-6.1-2.9c-.3-.2-.7 0-.9.4l-2.3 6.4c-.2.6-1 .6-1.2 0l-2.3-6.4c-.1-.3-.5-.5-.9-.4l-6.1 2.9c-.5.3-1.1-.3-.8-.8l2.9-6.1c.2-.3 0-.7-.4-.9l-6.4-2.3c-.6-.2-.6-1 0-1.2l6.4-2.3c.3-.1.5-.5.4-.9l-2.9-6.1c-.3-.5.3-1.1.8-.8l6.1 2.9c.3.2.7 0 .9-.4l2.3-6.4c.2-.6 1-.6 1.2 0zM-322.4 28.8l15.5-7.8v4.4l-11.2 5.6 11.2 5.6V41l-15.5-7.8v-4.4zM-233.6 32.7l-15.5 7.8v-4.4l11.2-5.6-11.2-5.6v-4.4l15.5 7.8v4.4z"/><path class="st0" d="M18-11.9l12.1-10.3-11.7-16.9zM59.7-11.9L47.6-22.2l11.7-16.9z"/><path class="st6" d="M-157.2-226.7l-21.5-9.1v22.1zM-328.3-132l48.2 19.1-26.6-32.1z"/><path class="st0" d="M-242.6-92.9c28-1.2 47.2-21.6 59.6-43.1 13.2-22.9 19.9-49 19.9-75.5v-46.1c0-5.6-4.2-10.4-9.7-11.1-26.6-3.6-65.2-20.8-69.6-21h-.8c-4.4.2-42.8 17.3-69.4 21-5.6.8-9.7 5.5-9.7 11.1v46.2c0 26.5 6.6 52.6 19.9 75.5 12.5 21.6 31.6 42 59.6 43.1"/><path class="st7" d="M-242.6-100.4c25.9-1.1 43.6-19.9 55.1-39.8 12.2-21.2 18.3-45.3 18.3-69.7v-42.6c0-5.2-3.8-9.6-9-10.3-24.5-3.4-60.2-19.2-64.3-19.4h-.8c-4 .2-39.5 16-64.1 19.4-5.1.7-9 5.1-9 10.3v42.6c0 24.4 6.1 48.6 18.3 69.7 11.5 19.9 29.2 38.8 55.1 39.8"/><path class="st6" d="M-290.4-233.6l2.5 7.1c.1.4.6.6 1 .4l6.8-3.2c.6-.3 1.2.3.9.9l-3.2 6.8c-.2.4 0 .8.4 1l7.1 2.5c.6.2.6 1.1 0 1.3l-7.1 2.5c-.4.1-.6.6-.4 1l3.2 6.8c.3.6-.3 1.2-.9.9l-6.8-3.2c-.4-.2-.8 0-1 .4l-2.5 7.1c-.2.6-1.1.6-1.3 0l-2.5-7.1c-.1-.4-.6-.6-1-.4l-6.8 3.2c-.6.3-1.2-.3-.9-.9l3.2-6.8c.2-.4 0-.8-.4-1l-7.1-2.5c-.6-.2-.6-1.1 0-1.3l7.1-2.5c.4-.1.6-.6.4-1l-3.2-6.8c-.3-.6.3-1.2.9-.9l6.8 3.2c.4.2.8 0 1-.4l2.5-7.1c.2-.6 1-.6 1.3 0z"/><path class="st5" d="M-191.8-257.2l2.1 5.8c.1.3.5.5.8.3l5.6-2.7c.5-.2 1 .3.8.8l-2.7 5.6c-.1.3 0 .7.3.8l5.8 2.1c.5.2.5.9 0 1.1l-5.8 2.1c-.3.1-.5.5-.3.8l2.7 5.6c.2.5-.3 1-.8.8l-5.6-2.7c-.3-.1-.7 0-.8.3l-2.1 5.8c-.2.5-.9.5-1.1 0l-2.1-5.8c-.1-.3-.5-.5-.8-.3l-5.6 2.7c-.5.2-1-.3-.8-.8l2.7-5.6c.1-.3 0-.7-.3-.8l-5.8-2.1c-.5-.2-.5-.9 0-1.1l5.8-2.1c.3-.1.5-.5.3-.8l-2.7-5.6c-.2-.5.3-1 .8-.8l5.6 2.7c.3.1.7 0 .8-.3l2.1-5.8c.2-.5 1-.5 1.1 0zM-242.3-140.8l1.7 4.7c.1.3.4.4.6.3l4.5-2.1c.4-.2.8.2.6.6l-2.1 4.5c-.1.2 0 .5.3.6l4.7 1.7c.4.1.4.7 0 .9l-4.7 1.7c-.3.1-.4.4-.3.6l2.1 4.5c.2.4-.2.8-.6.6l-4.5-2.1c-.2-.1-.5 0-.6.3l-1.7 4.7c-.1.4-.7.4-.9 0l-1.7-4.7c-.1-.3-.4-.4-.6-.3l-4.5 2.1c-.4.2-.8-.2-.6-.6l2.1-4.5c.1-.2 0-.5-.3-.6l-4.7-1.7c-.4-.1-.4-.7 0-.9l4.7-1.7c.3-.1.4-.4.3-.6l-2.1-4.5c-.2-.4.2-.8.6-.6l4.5 2.1c.2.1.5 0 .6-.3l1.7-4.7c.2-.4.8-.4.9 0zM-157.2-227.1l-171 48.3v46.6l171-48.2zM-263.7-265.9l-3.9 11.7 3.6 13.3zM-218.2-232.1l-13.5 13.3 16.3-16.2-19.1-16.2 11.7-17-14.5 14.1-5.5-.3h-.5v.1l-3.4 46.3 3.4.7-.4-2.2.5 2.1v.1l3.4-.7c0-.1.1-2.9.1-2.9l-.1 2.9 2-3.4-1.9.5 3.6-.9 3.7-6.3.6-.6 14.1-7.1-.5-6.3zm-23.6 17.6l-1.4 1.7-1.5-1.8-1-5 2.4 1.3v-.1l2.4-1.3-.9 5.2zm4.1-37.8l-5.5-2 5.5 2z"/><path class="st5" d="M-248.9-254l-14.7-14.1 11.7 16.9-19.1 16.3 2.9 2.8-.7 6.2 14.1 7.1.7.7 3.6 6.2 1.8.5 2 3.4 3.4-46.3zM-218.8-254.2l-3.9-11.7.4 25z"/><path class="st0" d="M-264-240.9l12.1-10.3-11.7-16.9zM-222.3-240.9l-12.1-10.3 11.7-16.9z"/><g><path class="st0" d="M-256-235.1l1.5 2.4 4.9 1.9-3.2-6.7zM-245.8-219.7l-1.2 2.3 3.8-.9zM-233.5-237.5l-3.2 6.7 4.9-1.9 1.4-2.4z"/><path class="st0" d="M-240.6-219.7l-2.5 1.4 1.8.4-1.9-.4-3.8.9 3.8 4.6 3.8-4.6zM-240.6-220.3h-5.2l2.6 1.3z"/></g><path class="st6" d="M112.3-122.8l-3.5-3.1-3.7-6.2-14.9-7.8.7-6.2-2.9-2.8 7-6-3.6-13.3 4-13.5 14.7 13.4h12.2l-.5.3 14.5-14.1 3.9 13.9-3.5 13.3 7 6-2.9 2.8.7 6.2-15.8 9.5-2.6 4.5-3.3 3.1-2.5 2.5h-2z"/><path class="st4" d="M107.1 289.5l-130.6 1.3-7.6-27h144.7z"/><path class="st9" d="M173.8 64.9l-171 48.3v46.6l171-48.2z"/></g><g id="Fox"><g class="st10"><g class="st11"><path class="st5" d="M74.1 139.4l-2.6 7.8 2.3 8.9zM104.6 162.1l-9 8.9 11-10.9-12.8-10.9 7.9-11.4-9.7 9.5-3.6-.2-.2.3-.1.3v-.4l-2.3 31 2.3.4-.3-1.5.3 1.4.2.1h.2-.2l2.2-.4v-2l-.1 2 1.3-2.3-1.3.3 2.4-.6 2.5-4.2.4-.4 9.5-4.8-.6-4.2zm-15.8 11.8l-.9 1.1-1-1.2-.7-3.4 1.6.9v-.1l1.6-.9-.6 3.6zm2.5-25.4l-3.5-.8 3.5.8z"/><path class="st5" d="M84 147.3l-9.9-9.4 7.9 11.4-12.9 10.8 2 2-.5 4.1 9.5 4.8.4.5 2.5 4.1 1.2.4 1.3 2.2 2.3-31.1zM104.2 147.2l-2.6-7.8.2 16.7z"/></g><g class="st11"><path class="st0" d="M79.2 160l1 1.6 3.3 1.3-2.1-4.5zM86.1 170.4l-.8 1.5 2.5-.6zM94.3 158.4l-2.1 4.5 3.2-1.3 1-1.6z"/><path class="st0" d="M89.6 170.4l-1.7.9 1.2.3-1.3-.3-2.5.6 2.5 3.1 2.6-3.1z"/></g></g><g id="new_fix"><g id="_x38_fORya.tif" class="st10"><image width="225" height="225" id="Layer_0_2_" xlink:href="5E39351913B7B84.png" transform="matrix(.202 0 0 .19 20.583 136.417)" overflow="visible"/></g><path class="st12" d="M223.5 139.3l-1.7-6.3c-.2-.6-.8-.7-1.3-.3-4.9 3.5-8.6 8.5-9 8.9-.3.4-2.3-.4-3.3-.4s-2.8.8-3.3.2c-1.8-2.1-3.9-5-9-8.7-.5-.3-1.1-.2-1.3.3l-1.7 6.3c-.3 1.2-.3 2.5 0 3.7 0 0 2.3 5.2 1.8 7-.4 1.5-4.4 4-4.7 4.2 5.7-.5 15.3 6.3 16.6 12l1.6-.8 1.8.8c1.3-5.5 10.5-12.1 16.3-12-.5-.3-4.2-2.8-4.6-4.2-.5-1.7 1.8-7 1.8-7 .4-1.2.4-2.5 0-3.7z"/><path class="st4" d="M207.3 141.7"/><path class="st0" d="M211.8 156.4c.3-1.9 1.7-3.9 3-4 .7 0 2 1.4 1.8 2-.7 1.8-5.1 3.5-4.8 2zM204.6 156.4c-.3-1.9-1.7-3.9-3-4-.7 0-2 1.4-1.8 2 .7 1.8 5 3.5 4.8 2zM207.4 165.4l-.6.1c-.5.1-.7.7-.4 1.1l1.3 1.6c.3.3.8.3 1.1 0l1.3-1.6c.3-.4.1-1-.4-1.1l-.6-.1c-.5-.1-1.1-.1-1.7 0z"/><path class="st4" d="M87.3 143.7"/><g><path class="st4" d="M263.6 115.6c.3-.4 4.1-5.4 9-8.9.5-.3 1.1-.2 1.3.3l1.7 6.3c.3 1.2.3 2.5 0 3.7 0 0-2.3 5.2-1.8 7 .5 1.5 4.7 4.2 4.7 4.2l-.9 3.7c-.4 1.5-1.4 2.9-2.8 3.6l-7.7 3.9-1.2 2.4c-.3.7-.9 1.2-1.5 1.6l-.8.4-1 1.6c-.3.5-.8.8-1.3 1-.2.1-.9.3-.9.3l-.9-.3c-.6-.2-1-.5-1.4-1l-1-1.6-.8-.4c-.7-.4-1.2-.9-1.5-1.6l-1.2-2.4-7.7-3.9c-1.4-.7-2.5-2-2.8-3.6l-.9-3.7s4.2-2.7 4.7-4.2c.5-1.7-1.8-7-1.8-7-.3-1.2-.3-2.5 0-3.7l1.7-6.3c.2-.6.8-.7 1.3-.3 5.1 3.7 7.2 6.6 9 8.7.5.6 2.3-.2 3.3-.2.8 0 2.9.8 3.2.4zM259.3 115.7"/><path class="st13" d="M263.8 130.4c.3-1.9 1.7-3.9 3-4 .7 0 2 1.4 1.8 2-.7 1.8-5.1 3.5-4.8 2zM256.6 130.4c-.3-1.9-1.7-3.9-3-4-.7 0-2 1.4-1.8 2 .7 1.8 5 3.5 4.8 2zM259.4 139.4l-.6.1c-.5.1-.7.7-.4 1.1l1.3 1.6c.3.3.8.3 1.1 0l1.3-1.6c.3-.4.1-1-.4-1.1l-.6-.1c-.5-.1-1.1-.1-1.7 0z"/></g><g><path class="st4" d="M-126.8 68.8c.3-.4 3.6-4.8 7.9-7.9.4-.3 1-.2 1.1.3l1.5 5.5c.3 1.1.3 2.2 0 3.3 0 0-2 4.6-1.6 6.1.4 1.3 4.1 3.7 4.1 3.7l-.8 3.3c-.3 1.4-1.2 2.5-2.5 3.2l-6.8 3.5-1.1 2.3c-.3.6-.4 1-1.3 1.5-1.6.9-5.6 1-7.1 0-.9-.6-1-.9-1.3-1.5l-1.1-2.2-6.8-3.5c-1.2-.6-2.2-1.8-2.5-3.2l-.8-3.3s3.7-2.4 4.1-3.7c.5-1.5-1.6-6.1-1.6-6.1-.3-1.1-.3-2.2 0-3.3l1.5-5.5c.1-.5.7-.6 1.1-.3 4.5 3.2 6.3 5.8 7.9 7.7.5.6 2-.2 2.9-.2 1.1-.1 2.9.6 3.2.3z"/><path class="st0" d="M-126.6 81.9c.3-1.7 1.5-3.5 2.6-3.5.6 0 1.8 1.2 1.6 1.8-.7 1.4-4.5 3-4.2 1.7zM-133 81.9c-.3-1.7-1.5-3.5-2.6-3.5-.6 0-1.8 1.2-1.6 1.8.7 1.4 4.5 3 4.2 1.7zM-130.5 89.8l-.5.1c-.4.1-.6.6-.3 1l1.1 1.4c.2.3.7.3.9 0l1.1-1.4c.3-.4.1-.9-.3-1l-.5-.1c-.5-.1-1-.1-1.5 0z"/></g><g><defs><path id="SVGID_1_" d="M269.6 45.6c.3-.4 4.1-5.4 9-8.9.5-.3 1.1-.2 1.3.3l1.7 6.3c.3 1.2.3 2.5 0 3.7 0 0-2.3 5.2-1.8 7 .5 1.5 4.7 4.2 4.7 4.2l-.9 3.7c-.4 1.5-1.4 2.9-2.8 3.6l-7.7 3.9-1.2 2.4c-.3.7-.9 1.2-1.5 1.6l-.8.4-1 1.6c-.3.5-.8.8-1.3 1-.2.1-.9.3-.9.3l-.9-.3c-.6-.2-1-.5-1.4-1l-1-1.6-.8-.4c-.7-.4-1.2-.9-1.5-1.6l-1.2-2.4-7.7-3.9c-1.4-.7-2.5-2-2.8-3.6l-.9-3.7s4.2-2.7 4.7-4.2c.5-1.7-1.8-7-1.8-7-.3-1.2-.3-2.5 0-3.7l1.7-6.3c.2-.6.8-.7 1.3-.3 5.1 3.7 7.2 6.6 9 8.7.5.6 2.3-.2 3.3-.2.8 0 2.9.8 3.2.4z"/></defs><use xlink:href="#SVGID_1_" overflow="visible" fill="#FFF"/><clipPath id="SVGID_2_"><use xlink:href="#SVGID_1_" overflow="visible"/></clipPath><path class="st14" d="M280 33.8l-13.8 9.4-13.5-9.4s-10.7 25.1-5.1 24.3c5.7-.8 15.6 6.2 16.9 12l1.6-.8 1.8.8c1.3-5.8 11.5-12.7 17.1-12s-5-24.3-5-24.3z"/><g><path class="st0" d="M269.8 60.4c.3-1.9 1.7-3.9 3-4 .7 0 2 1.4 1.8 2-.7 1.8-5.1 3.5-4.8 2zM262.6 60.4c-.3-1.9-1.7-3.9-3-4-.7 0-2 1.4-1.8 2 .7 1.8 5 3.5 4.8 2zM265.3 69.4l-.7.1c-.6.1-.8.7-.4 1.1l1.5 1.6c.3.3.9.3 1.2 0l1.5-1.6c.4-.4.1-1-.4-1.1l-.7-.1c-.7-.1-1.4-.1-2 0z"/></g></g></g></g><g id="Layer_2" class="st10"><path class="st15" d="M-314.7-287.7H180V177h-494.7z"/><g id="IPkK1i.tif"><image width="394" height="470" id="Layer_0_1_" xlink:href="5E39351913B7B85.png" transform="translate(-333.717 -262.333)" overflow="visible"/></g><g class="st11"><path class="st16" d="M-122.8-159.8L-248.2-53.3l182.5 181z"/><path class="st4" d="M-103.2-178.3l-96.5-92.5 100.5 145.5"/><path class="st17" d="M-202.1-92.5l79.3-67.3-76.9-111z"/><path class="st16" d="M-65.7-180.3v236l-42-82z"/><path class="st17" d="M-115.7 28.5c0-3 8-54.9 8-54.9l42 82-50-27.1z"/><path class="st18" d="M-90.7 61.7l25-6v36z"/><path class="st16" d="M-122.8-159.8l57.1-20.5L-101.4-49z"/><path class="st18" d="M-128.6-70.3l-20.9 16 41.8 28z"/><path class="st4" d="M-103.2-178.3l37.5-2-36.8 13.2z"/><path class="st18" d="M-229.3-34.5l-4.4 40.7 92.4 46.5zM-136.7 57.3l23.9 40.7 23.8 6.5z"/><path class="st16" d="M-202.1-92.5l-23.3-86.8 25.6-77z"/><path class="st18" d="M-82.5 46.6l16.8 9.1-25 6zM-65.7 127.7l-22.3-4.3c0-.8-1-18.8-1-18.8l23.3 23.1z"/><path class="st18" d="M-101 101.2l12.9 22.1-.9-18.8z"/><path class="st17" d="M-107.7-26.3l-32-12.5-9.8-15.5zM-65.7 91.7v36l-10.5-48.6z"/></g><path class="st19" d="M-8.1-159.8L117.3-53.3l-183 181z"/><path class="st19" d="M-27.7-178.3l96.5-92.5-100.5 145.5"/><path class="st20" d="M71.2-92.5l-79.3-67.3 76.9-111z"/><path class="st19" d="M-65.7-180.3v236l42-82z"/><path class="st20" d="M-16.2 28.5c0-3-8.5-54.9-8.5-54.9l-41.5 82 50-27.1z"/><path class="st21" d="M-40.7 61.7l-25-6v36z"/><path class="st19" d="M-8.1-159.8l-57.6-20.5L-29.5-48z"/><path class="st21" d="M-2.3-70.3l20.8 16-41.7 28z"/><path class="st20" d="M-27.7-178.3l-38-2 37.3 13.2z"/><path class="st21" d="M98.3-34.5l4.5 40.7-92.7 46.5zM5.9 56.8L-18.2 98l-23.7 6.1z"/><path class="st22" d="M71.2-92.5l23.2-86.8-25.6-77z"/><path class="st21" d="M-48.7 46.7l-16.5 9 24.5 6zM-65.7 127.7l22.8-4.3c0-.8 1-19.2 1-19.2l-23.8 23.5z"/><path class="st21" d="M-29.7 101l-13.2 22.3 1-19.2z"/><path class="st20" d="M-23.2-26.3l32-12.5 9.7-15.5zM-65.7 91.7v36l10.5-48.6z"/><path class="st22" d="M-82.7 46.7h34l-17 9z"/></g><g id="Layer_3" class="st10"><g class="st11"><path class="st5" d="M-202-242.1l-25.6 77 23.2 86.9zM96.1-20.3L7.9 66.9 115-39.1-10.2-145.4l76.8-111.1-96.6 92.4-37.7-2h-.2l.2.1-.2-.1.1.5-22.5 303.2 22.3 4.3-2.9-14.6 3 14-.1.6h.2l22.6-4.3c0-.8 1-19.2 1-19.2l-1 19.2 13.2-22.3-12.2 3.1 23.7-6.1 24-41.2 4.2-4.2 92.7-46.5-4.3-40.7zM-58.5 94.9l-9.2 11-9.7-11.7-6.6-33 15.6 8.5-.1.2.2-.1.2.1-.1-.2.2-.1.2.3.3-.6 15.7-8.5-6.7 34.1zm27.7-247.7L-67.7-166l36.9 13.2z"/><path class="st5" d="M-105.5-164.1l-96.5-92.5 76.8 111.2-125.3 106.3 19 18.8-4.5 40.7 92.4 46.5 4.6 4.6 24 40.8 11.7 3.2 13 22.1L-68-166.1zM92.2-165.1l-25.6-77 2.3 163.9z"/></g><path class="st15" d="M-204.4-78.2l79.3-67.3-76.9-111.1zM68.9-78.2l-79.2-67.3 76.8-111.1z"/><g class="st11"><path class="st0" d="M-151.7-40.1l9.7 15.5 32 12.5-20.8-43.9zM-84.8 60.9l-8.2 15 25-6zM-4.6-56l-20.9 43.9 32-12.5 9.8-15.5z"/><path class="st0" d="M-51 60.9l-16.5 9 12.3 3-12.5-3-25 6 25 30 25-30-.3-.1z"/><path class="st0" d="M-51 60.7h-34l17 9z"/></g></g></svg>