<?xml version="1.0" encoding="utf-8"?>
<!-- Generator: Adobe Illustrator 19.1.0, SVG Export Plug-In . SVG Version: 6.00 Build 0)  -->
<!DOCTYPE svg PUBLIC "-//W3C//DTD SVG 1.1//EN" "http://www.w3.org/Graphics/SVG/1.1/DTD/svg11.dtd">
<svg version="1.1" xmlns="http://www.w3.org/2000/svg" xmlns:xlink="http://www.w3.org/1999/xlink" x="0px" y="0px" width="176.5px"
	 height="201px" viewBox="0 0 176.5 201" style="enable-background:new 0 0 176.5 201;" xml:space="preserve">
<style type="text/css">
	.st0{fill:#EEE657;}
	.st1{fill:#727272;}
	.st2{fill:none;stroke:#FFFFFF;stroke-width:3;stroke-miterlimit:10;}
	.st3{fill:#FFFFFF;}
	.st4{fill:#3E4651;}
	.st5{fill:#FF646A;}
	.st6{fill:#73C1DD;}
	.st7{fill:#FFFFFF;stroke:#EEE657;stroke-width:4;stroke-miterlimit:10;}
	.st8{display:none;}
	.st9{display:inline;}
	.st10{fill:#F48446;}
	.st11{fill:#2C82C9;}
	.st12{clip-path:url(#SVGID_2_);fill:#E74C3C;}
	.st13{display:inline;fill:#3E4651;}
	.st14{fill:#FF931E;}
	.st15{fill:#FCB941;}
	.st16{fill:#CE6905;}
	.st17{display:inline;fill:#FF931E;}
	.st18{display:inline;fill:#FCB941;}
	.st19{display:inline;fill:#CE6905;}
	.st20{display:inline;fill:#EEE657;}
</style>
<g id="Layer_1">
	<polygon class="st0" points="175.8,62.3 154.3,53.2 154.3,75.3 	"/>
	<polygon class="st0" points="1,162.3 50.9,179.1 24.3,147 	"/>
	<path class="st0" d="M88.4,199.1c28-1.2,47.2-21.6,59.6-43.1c13.2-22.9,19.9-49,19.9-75.5l0-46.1c0-5.6-4.2-10.4-9.7-11.1
		c-26.6-3.6-65.2-20.8-69.6-21c-0.3,0-0.5,0-0.8,0c-4.4,0.2-42.8,17.3-69.4,21c-5.6,0.8-9.7,5.5-9.7,11.1c0,11.3,0,30.6,0,46.2
		c0,26.5,6.6,52.6,19.9,75.5c12.5,21.6,31.6,42,59.6,43.1"/>
	<path class="st2" d="M88.4,191.6c25.9-1.1,43.6-19.9,55.1-39.8c12.2-21.2,18.3-45.3,18.3-69.7l0-42.6c0-5.2-3.8-9.6-9-10.3
		C128.3,25.8,92.6,9.9,88.5,9.8c-0.3,0-0.5,0-0.8,0c-4,0.2-39.5,16-64.1,19.4c-5.1,0.7-9,5.1-9,10.3c0,10.5,0,28.3,0,42.6
		c0,24.4,6.1,48.6,18.3,69.7c11.5,19.9,29.2,38.8,55.1,39.8H88.4z"/>
	<path class="st3" d="M89.6,45.5l5.3,14.9c0.3,0.8,1.2,1.2,2,0.8l14.3-6.8c1.2-0.6,2.5,0.7,1.9,1.9l-6.8,14.3c-0.4,0.8,0,1.7,0.8,2
		l14.9,5.3c1.3,0.5,1.3,2.3,0,2.7L107.2,86c-0.8,0.3-1.2,1.2-0.8,2l6.8,14.3c0.6,1.2-0.7,2.5-1.9,1.9l-14.3-6.8
		c-0.8-0.4-1.7,0-2,0.8l-5.3,14.9c-0.5,1.3-2.3,1.3-2.7,0l-5.3-14.9c-0.3-0.8-1.2-1.2-2-0.8l-14.3,6.8c-1.2,0.6-2.5-0.7-1.9-1.9
		L70.2,88c0.4-0.8,0-1.7-0.8-2l-14.9-5.3c-1.3-0.5-1.3-2.3,0-2.7l14.9-5.3c0.8-0.3,1.2-1.2,0.8-2l-6.8-14.3
		c-0.6-1.2,0.7-2.5,1.9-1.9l14.3,6.8c0.8,0.4,1.7,0,2-0.8l5.3-14.9C87.4,44.2,89.2,44.2,89.6,45.5z"/>
	<polygon class="st7" points="173.8,64.9 2.8,113.2 2.8,159.8 173.8,111.6 	"/>
</g>
<g id="Fox">
	<g class="st8">
		<g class="st9">
			<polygon class="st3" points="74.1,139.4 71.5,147.2 73.8,156.1 			"/>
			<path class="st3" d="M104.6,162.1l-9,8.9l11-10.9l-12.8-10.9l7.9-11.4l-9.7,9.5l-3.6-0.2v0v0l-0.2,0.3l-0.1,0.3h0l0-0.3l0-0.1
				l-2.3,31l2.3,0.4l-0.3-1.5l0.3,1.4l0.2,0.1l0.2,0v0l-0.2,0l2.2-0.4c0-0.1,0-2,0-2l-0.1,2l1.3-2.3l-1.3,0.3l2.4-0.6l2.5-4.2
				l0.4-0.4l9.5-4.8L104.6,162.1z M88.8,173.9l-0.9,1.1l-1-1.2l-0.7-3.4l1.6,0.9l0,0l0,0l0,0l0,0l0,0l0,0l0-0.1l1.6-0.9L88.8,173.9z
				 M91.3,148.5l-3.5-0.8h0L91.3,148.5L91.3,148.5z"/>
			<polygon class="st3" points="84,147.3 74.1,137.9 82,149.3 69.1,160.1 71.1,162.1 70.6,166.2 80.1,171 80.5,171.5 83,175.6 
				84.2,176 85.5,178.2 87.8,147.1 			"/>
			<polygon class="st3" points="104.2,147.2 101.6,139.4 101.8,156.1 			"/>
		</g>
		<g class="st9">
			<polygon class="st4" points="79.2,160 80.2,161.6 83.5,162.9 81.4,158.4 			"/>
			<polygon class="st4" points="86.1,170.4 85.3,171.9 87.8,171.3 			"/>
			<polygon class="st4" points="94.3,158.4 92.2,162.9 95.4,161.6 96.4,160 			"/>
			<polygon class="st4" points="89.6,170.4 87.9,171.3 89.1,171.6 87.8,171.3 85.3,171.9 87.8,175 90.4,171.9 90.4,171.9 			"/>
		</g>
	</g>
	<g id="new_fix">
		<g id="_x38_fORya.tif" class="st8">
			
				<image style="display:inline;overflow:visible;" width="225" height="225" id="Layer_0_2_" xlink:href="49534EB22679264C.png"  transform="matrix(0.2019 0 0 0.19 20.5833 136.4167)">
			</image>
		</g>
	</g>
</g>
<g id="Layer_2" class="st8">
	<rect x="-314.7" y="-287.7" class="st13" width="494.7" height="464.7"/>
	<g id="IPkK1i.tif">
		
			<image style="display:inline;overflow:visible;" width="394" height="470" id="Layer_0_1_" xlink:href="49534EB22679264D.png"  transform="matrix(1 0 0 1 -333.7173 -262.3333)">
		</image>
	</g>
	<g>
		<polygon class="st17" points="-8.1,-159.8 117.3,-53.3 -65.7,127.7 		"/>
		<polygon class="st19" points="98.3,-34.5 102.8,6.2 10.1,52.7 		"/>
		<polygon class="st19" points="5.9,56.8 -18.2,98 -41.9,104.1 		"/>
	</g>
</g>
<g id="Layer_3" class="st8">
	<g class="st9">
		<path class="st3" d="M96.1-20.3L7.9,66.9L115-39.1L-10.2-145.4l76.8-111.1L-30-164.1l-37.7-2l0,0l0,0l-0.2,0l0.2,0.1l0,0l-0.2-0.1
			l0.1,0.5l-22.5,303.2l22.3,4.3l-2.9-14.6l3,14l-0.1,0.6l0.2,0l0,0l0,0l22.6-4.3c0-0.8,1-19.2,1-19.2l-1,19.2l13.2-22.3l-12.2,3.1
			l23.7-6.1l24-41.2l4.2-4.2l92.7-46.5L96.1-20.3z M-58.5,94.9l-9.2,11l-9.7-11.7l-6.6-33l15.6,8.5l-0.1,0.2l0.2-0.1l0.2,0.1
			l-0.1-0.2l0.2-0.1l0.2,0.3l0.3-0.6l15.7-8.5L-58.5,94.9z M-30.8-152.8L-67.7-166l0,0L-30.8-152.8L-30.8-152.8z"/>
	</g>
	<g class="st9">
	</g>
</g>
</svg>
